<?xml version="1.0" encoding="iso-8859-1"?>
<!-- Generator: Adobe Illustrator 19.0.0, SVG Export Plug-In . SVG Version: 6.00 Build 0)  -->
<svg version="1.1" id="Layer_1" xmlns="http://www.w3.org/2000/svg" xmlns:xlink="http://www.w3.org/1999/xlink" x="0px" y="0px"
	 viewBox="0 0 512.001 512.001" style="enable-background:new 0 0 512.001 512.001;" xml:space="preserve">
<g>
	<polygon style="fill:#FFD248;" points="498.234,429.512 500.623,486.4 295.823,486.4 285.012,429.512 	"/>
	<polygon style="fill:#FFD248;" points="226.99,429.512 216.179,486.4 11.379,486.4 13.768,429.512 	"/>
</g>
<polygon style="fill:#31C0D8;" points="488.112,190.578 498.234,429.512 285.012,429.512 256.001,275.911 226.99,429.512 
	13.768,429.512 23.89,190.578 28.445,82.489 28.445,25.6 483.556,25.6 483.556,82.489 "/>
<path style="fill:#231F20;" d="M509.602,429.03l-10.122-238.931l-4.547-107.85V25.6c0-6.284-5.094-11.378-11.378-11.378H28.445
	c-6.284,0-11.378,5.094-11.378,11.378v56.649l-4.545,107.848L2.399,429.035L0.01,485.924c-0.13,3.098,1.01,6.114,3.155,8.352
	c2.147,2.237,5.113,3.502,8.214,3.502h204.8c5.465,0,10.158-3.886,11.178-9.254l10.813-56.901l17.831-94.407l17.834,94.42
	l10.811,56.889c1.019,5.368,5.713,9.254,11.178,9.254h204.8c3.1,0,6.067-1.265,8.212-3.503c2.146-2.238,3.286-5.254,3.155-8.352
	L509.602,429.03z M23.245,475.023l1.434-34.133h188.568l-6.486,34.133H23.245z M267.181,273.8c-1.016-5.375-5.711-9.266-11.18-9.266
	c-5.47,0-10.165,3.891-11.18,9.266L217.56,418.134H25.637l9.159-216.178h44.849V230.4h22.756v-28.444h34.133V179.2H35.758
	l3.597-85.333h205.269v23.732l-33.645,33.645l16.092,16.092l28.931-28.933l28.933,28.933l16.092-16.092l-33.646-33.646V93.867
	h182.044V71.111h-409.6V36.978h432.356v45.511c0,0.16,0.003,0.32,0.01,0.479l4.055,96.232H375.468v22.756h34.133V230.4h22.756
	v-28.444h44.849l9.159,216.178H294.442L267.181,273.8z M305.242,475.023l-6.486-34.133h188.568l1.434,34.133H305.242z"/>
<g>
</g>
<g>
</g>
<g>
</g>
<g>
</g>
<g>
</g>
<g>
</g>
<g>
</g>
<g>
</g>
<g>
</g>
<g>
</g>
<g>
</g>
<g>
</g>
<g>
</g>
<g>
</g>
<g>
</g>
</svg>
